# xmcd
#
# Track frame offsets:
#	150
#	10118
#	18490
#	28583
#	43405
#	56865
#	70663
#	79515
#	90128
#	102305
#	115068
#	131948
#	144198
#	156860
#
# Disc length: 2267 seconds
#
# Revision: 1
# Processed by: cddbd v1.5.2PL0 Copyright (c) Steve Scherf et al.
# Submitted via: EZCDAudioConverter 2.2.2.1
#
DISCID=af08d90e
DTITLE=Willie Nelson - Remember The Early Days
DYEAR=1900
DGENRE=Country
TTITLE0=Broken Promises
TTITLE1=Slow Down Old World
TTITLE2=Healing Hand Of Time
TTITLE3=And So Will You My Love
TTITLE4=If You Can't Undo The Wrong Undo The Right
TTITLE5=Home Is Where You're Happy
TTITLE6=Why Are You Picking On Me
TTITLE7=I Feel Sorry For Him
TTITLE8=I Can't Find The Time
TTITLE9=Any Old Arms Won't Do
TTITLE10=I Let My Mind Wonder
TTITLE11=Shelter Of My Arms
TTITLE12=I Just Don't Understand
TTITLE13=You'll Always Have Someone
EXTD=
EXTT0=
EXTT1=
EXTT2=
EXTT3=
EXTT4=
EXTT5=
EXTT6=
EXTT7=
EXTT8=
EXTT9=
EXTT10=
EXTT11=
EXTT12=
EXTT13=
PLAYORDER=
